<svg width="295" height="42" viewBox="0 0 295 42" fill="none" xmlns="http://www.w3.org/2000/svg">
<path d="M0.926025 41.172V1.17759H34.3501V9.91898H12.0674V16.3752H22.4088C27.2843 16.3752 30.9981 17.4038 33.55 19.4605C36.1401 21.5178 37.4355 24.4889 37.4355 28.3738C37.4355 32.3735 35.9882 35.516 33.093 37.8011C30.1985 40.048 26.1416 41.172 20.9233 41.172H0.926025ZM12.0674 33.0589H20.1805C22.0469 33.0589 23.4753 32.6774 24.4657 31.9161C25.4941 31.1542 26.0083 30.0684 26.0083 28.6594C26.0083 25.8408 24.0657 24.4318 20.1805 24.4318H12.0674V33.0589ZM57.559 41.172V1.17759H68.7004V41.172H57.559ZM88.3395 38.0867L91.7104 30.1449C93.4245 31.0205 95.2139 31.6876 97.0809 32.1445C98.9474 32.602 100.756 32.8682 102.509 32.9447C104.261 33.0201 105.841 32.9059 107.251 32.602C108.698 32.2588 109.841 31.7447 110.679 31.0593C111.517 30.3734 111.936 29.4779 111.936 28.3738C111.936 27.155 111.422 26.2783 110.394 25.7454C109.403 25.1743 108.089 24.8887 106.451 24.8887H96.2242V16.6042H105.537C107.061 16.6042 108.241 16.2992 109.08 15.6898C109.917 15.0799 110.337 14.2614 110.337 13.2328C110.337 12.2424 109.975 11.4616 109.251 10.8905C108.527 10.2805 107.555 9.86187 106.337 9.6334C105.118 9.36615 103.747 9.27131 102.223 9.34783C100.699 9.4238 99.1188 9.70938 97.4808 10.2051C95.8427 10.662 94.2623 11.2903 92.7385 12.0905L89.4248 3.63412C92.1291 2.30106 94.9671 1.38666 97.9382 0.892014C100.909 0.396293 103.804 0.282065 106.622 0.548785C109.441 0.815504 111.994 1.44378 114.279 2.43468C116.564 3.38625 118.373 4.66273 119.706 6.26251C121.078 7.86229 121.764 9.74764 121.764 11.9191C121.764 13.8228 121.249 15.5185 120.221 17.004C119.192 18.4896 117.802 19.6507 116.05 20.4892C114.298 21.327 112.279 21.7462 109.993 21.7462L110.28 19.3463C112.907 19.3463 115.193 19.8038 117.136 20.7176C119.116 21.632 120.64 22.8891 121.706 24.4889C122.81 26.0499 123.363 27.8598 123.363 29.9165C123.363 31.8589 122.849 33.5918 121.821 35.1156C120.83 36.6012 119.44 37.8583 117.65 38.8869C115.859 39.915 113.802 40.6763 111.479 41.172C109.194 41.7049 106.737 41.9528 104.109 41.9151C101.48 41.9151 98.8138 41.5907 96.11 40.9436C93.4428 40.2959 90.8532 39.3438 88.3395 38.0867ZM170.503 1.17759H181.816V41.172H170.503V1.17759ZM155.077 41.172H143.764V1.17759H155.077V41.172ZM171.303 25.5741H154.277V16.2039H171.303V25.5741ZM215.092 16.6613H233.661V25.1172H215.092V16.6613ZM215.891 32.4307H236.803V41.172H204.693V1.17759H236.06V9.91898H215.891V32.4307ZM277.015 41.9722C273.853 41.9722 270.921 41.4765 268.217 40.4867C265.55 39.458 263.227 38.0102 261.246 36.1442C259.304 34.2772 257.779 32.0874 256.675 29.5738C255.571 27.0214 255.018 24.2216 255.018 21.1745C255.018 18.1275 255.571 15.3471 256.675 12.833C257.779 10.2805 259.304 8.07134 261.246 6.20538C263.227 4.33835 265.55 2.90993 268.217 1.92011C270.921 0.892025 273.853 0.377441 277.015 0.377441C280.71 0.377441 284.004 1.02457 286.9 2.32045C289.832 3.61525 292.271 5.4812 294.213 7.91939L287.014 14.4327C285.718 12.9089 284.29 11.7478 282.729 10.9476C281.205 10.148 279.491 9.74764 277.586 9.74764C275.948 9.74764 274.444 10.0144 273.073 10.5478C271.702 11.0807 270.52 11.862 269.53 12.8901C268.578 13.8799 267.816 15.0799 267.245 16.49C266.712 17.899 266.445 19.4605 266.445 21.1745C266.445 22.8891 266.712 24.4501 267.245 25.8597C267.816 27.2692 268.578 28.488 269.53 29.5167C270.52 30.5065 271.702 31.2684 273.073 31.8018C274.444 32.3347 275.948 32.602 277.586 32.602C279.491 32.602 281.205 32.2017 282.729 31.402C284.29 30.6019 285.718 29.4402 287.014 27.9169L294.213 34.4302C292.271 36.8296 289.832 38.6961 286.9 40.0292C284.004 41.324 280.71 41.9722 277.015 41.9722Z" fill="url(#paint0_linear_8_15)"/>
<defs>
<linearGradient id="paint0_linear_8_15" x1="147.57" y1="0.377441" x2="147.57" y2="41.9722" gradientUnits="userSpaceOnUse">
<stop stop-color="#D9D9D9"/>
<stop offset="1" stop-color="#56595C"/>
</linearGradient>
</defs>
</svg>
